<svg id="Capa_1" enable-background="new 0 0 512 512" height="512" viewBox="0 0 512 512" width="512" xmlns="http://www.w3.org/2000/svg"><g><g><path d="m256 483.466c-10.792-9.338-16.275-14.638-73.926-63.662-109.641-93.237-182.074-154.832-182.074-244.755 0-80.512 57.401-146.515 136-146.515 54.545 0 95.017 33.497 120 81.015 24.982-47.516 65.454-81.015 120-81.015 78.609 0 136 66.014 136 146.515 0 89.923-72.434 151.519-182.075 244.755-57.91 49.246-62.649 53.905-73.925 63.662zm-120-424.932c-60.43 0-106 50.091-106 116.515 0 76.053 68.23 134.074 171.508 221.9 17.5 14.882 35.509 30.196 54.492 46.685 18.982-16.489 36.99-31.802 54.49-46.684 103.28-87.825 171.51-145.847 171.51-221.901 0-66.425-45.57-116.515-106-116.515-54.563 0-93.01 48.917-105.542 93.995l-.017.063c-15.21-.027-13.686-.025-28.896-.052l-.003-.011c-11.067-39.808-46.958-93.995-105.542-93.995z"/></g></g></svg>